<?xml version="1.0" encoding="UTF-8" standalone="no"?>
<svg
   version="1.1"
   viewBox="-5.0 -10.0 110.0 135.0"
   id="svg5"
   sodipodi:docname="noun-trash-7185072-2.svg"
   inkscape:version="1.3.2 (091e20e, 2023-11-25)"
   xmlns:inkscape="http://www.inkscape.org/namespaces/inkscape"
   xmlns:sodipodi="http://sodipodi.sourceforge.net/DTD/sodipodi-0.dtd"
   xmlns="http://www.w3.org/2000/svg"
   xmlns:svg="http://www.w3.org/2000/svg">
  <defs
     id="defs5" />
  <sodipodi:namedview
     id="namedview5"
     pagecolor="#ffffff"
     bordercolor="#000000"
     borderopacity="0.25"
     inkscape:showpageshadow="2"
     inkscape:pageopacity="0.0"
     inkscape:pagecheckerboard="0"
     inkscape:deskcolor="#d1d1d1"
     inkscape:zoom="1.7481481"
     inkscape:cx="63.209748"
     inkscape:cy="57.203391"
     inkscape:window-width="1312"
     inkscape:window-height="449"
     inkscape:window-x="0"
     inkscape:window-y="38"
     inkscape:window-maximized="0"
     inkscape:current-layer="svg5" />
  <path
     d="m 62.051,61.066 c 0.64844,0 1.1719,0.52344 1.1719,1.1719 v 18.234 c 4.0078,-2.4336 8.8906,-2.9531 13.32,-1.4219 V 44.73 h -58.887 v 55.309 c 0,4.1172 3.7227,7.4688 8.2969,7.4688 h 37.523 c -4.3477,-2.5273 -7.2227,-6.9844 -7.7344,-11.988 -0.51172,-5 1.4023,-9.9453 5.1484,-13.301 v -19.98 c 0,-0.64453 0.51953,-1.168 1.1641,-1.1719 z M 33.317,89.765 c 0,0.64844 -0.52344,1.1719 -1.1719,1.1719 -0.64844,0 -1.1719,-0.52344 -1.1719,-1.1719 V 62.238 c 0,-0.64844 0.52344,-1.1719 1.1719,-1.1719 0.64844,0 1.1719,0.52344 1.1719,1.1719 z m 14.953,0 h 0.0039 c 0,0.64844 -0.52734,1.1719 -1.1719,1.1719 -0.64844,0 -1.1719,-0.52344 -1.1719,-1.1719 V 62.238 c 0,-0.64844 0.52344,-1.1719 1.1719,-1.1719 0.64453,0 1.1719,0.52344 1.1719,1.1719 z"
     id="path1" />
  <path
     d="M 77.562,29.625 H 16.636 c -0.5625,0 -1.4062,1.2812 -1.4062,3.2109 v 6.3398 c 0,1.9297 0.84766,3.2109 1.4062,3.2109 h 60.926 c 0.5625,0 1.4102,-1.2812 1.4102,-3.2109 V 32.8359 C 78.968294,30.9062 78.12454,29.625 77.562,29.625 Z"
     id="path2" />
  <path
     d="m 71.383,80.531 c -5.4141,-0.0039 -10.297,3.2539 -12.375,8.2578 -2.0742,5.0039 -0.92969,10.762 2.8984,14.594 3.8281,3.832 9.5898,4.9766 14.594,2.9062 5.0039,-2.0742 8.2656,-6.957 8.2656,-12.371 C 84.7582,86.5313 78.7738,80.543 71.383,80.531 Z m 6.8359,12.629 -4.75,-1.2539 v -0.0039 c -0.41016,-0.10938 -0.72266,-0.44141 -0.8125,-0.85547 -0.08984,-0.41797 0.0625,-0.84766 0.39062,-1.1172 l 1.1797,-0.95313 c -2.9766,-1.8945 -6.9219,-1.0547 -8.8711,1.8906 -1.2383,1.8633 -1.4141,4.1953 -0.48828,6.4062 v -0.0039 c 0.58203,1.375 1.6719,2.4727 3.0469,3.0625 3.7109,1.5742 6.9336,-0.17578 8.3594,-2.4688 v 0.0039 c 0.33984,-0.55078 1.0664,-0.71875 1.6172,-0.375 0.55078,0.33984 0.71875,1.0664 0.375,1.6172 -1.5938,2.6055 -4.4297,4.1875 -7.4844,4.1719 -1.3008,-0.004 -2.5859,-0.26953 -3.7812,-0.78125 -1.9336,-0.82812 -3.4727,-2.375 -4.2969,-4.3125 -1.2344,-2.9453 -0.97656,-6.082 0.69531,-8.6094 h 0.0039 c 1.3203,-1.9922 3.3906,-3.3594 5.7383,-3.7969 2.3477,-0.4375 4.7734,0.09375 6.7227,1.4766 0.08594,0.0625 0.16406,0.13672 0.23047,0.21875 l 1.4766,-1.1875 c 0.33203,-0.26953 0.78516,-0.32812 1.1758,-0.15234 0.39064,0.17578 0.64453,0.55469 0.66797,0.98047 l 0.22656,4.9062 c 0.0078,0.35547 -0.14844,0.69922 -0.42578,0.92187 -0.28125,0.22266 -0.64844,0.30078 -0.99219,0.21094 z"
     id="path3" />
  <path
     d="m 64.879,30.602 c -0.64844,0 -1.1719,-0.52734 -1.1719,-1.1719 0,-5.8398 -3.4102,-10.594 -7.6016,-10.594 h -18.008 c -4.1953,0 -7.6016,4.75 -7.6016,10.594 H 30.492 c 0,0.64453 -0.52344,1.1719 -1.1719,1.1719 -0.64844,0 -1.1719,-0.52734 -1.1719,-1.1719 0,-7.1328 4.4688,-12.938 9.9453,-12.938 h 18.008 c 5.4844,0 9.9453,5.8047 9.9453,12.938 h 0.0039 c 0,0.64453 -0.52344,1.1719 -1.1719,1.1719 z"
     id="path4" />
</svg>
