<?xml version="1.0" encoding="UTF-8" standalone="no"?>
<!-- Created with Inkscape (http://www.inkscape.org/) -->

<svg
   xmlns:dc="http://purl.org/dc/elements/1.1/"
   xmlns:cc="http://creativecommons.org/ns#"
   xmlns:rdf="http://www.w3.org/1999/02/22-rdf-syntax-ns#"
   xmlns:svg="http://www.w3.org/2000/svg"
   xmlns="http://www.w3.org/2000/svg"
   xmlns:sodipodi="http://sodipodi.sourceforge.net/DTD/sodipodi-0.dtd"
   xmlns:inkscape="http://www.inkscape.org/namespaces/inkscape"
   width="744.09448819"
   height="1052.3622047"
   id="svg2"
   version="1.1"
   inkscape:version="0.48.4 r9939"
   sodipodi:docname="New document 1">
  <defs
     id="defs4" />
  <sodipodi:namedview
     id="base"
     pagecolor="#ffffff"
     bordercolor="#666666"
     borderopacity="1.0"
     inkscape:pageopacity="0.0"
     inkscape:pageshadow="2"
     inkscape:zoom="0.98994949"
     inkscape:cx="58.24346"
     inkscape:cy="680.39712"
     inkscape:document-units="px"
     inkscape:current-layer="layer1"
     showgrid="false"
     inkscape:window-width="1920"
     inkscape:window-height="1137"
     inkscape:window-x="-8"
     inkscape:window-y="-8"
     inkscape:window-maximized="1" />
  <metadata
     id="metadata7">
    <rdf:RDF>
      <cc:Work
         rdf:about="">
        <dc:format>image/svg+xml</dc:format>
        <dc:type
           rdf:resource="http://purl.org/dc/dcmitype/StillImage" />
        <dc:title></dc:title>
      </cc:Work>
    </rdf:RDF>
  </metadata>
  <g
     inkscape:label="Layer 1"
     inkscape:groupmode="layer"
     id="layer1">
    <path
       style="fill:#cdcdcd;fill-opacity:1;stroke:#bebebe;stroke-width:5;stroke-linecap:butt;stroke-linejoin:round;stroke-miterlimit:4;stroke-opacity:1;stroke-dasharray:none"
       d="m 277.74861,709.12697 204.5559,0 0,-12.12183 c 0,0 -0.10169,-8.44154 -8.85169,-8.44154 -8.75,0 -91.56251,0 -91.56251,0 l 58.2143,0 c 0,0 -21.42857,-5.71428 -21.42857,-62.14286 -28.58321,0 -55.06446,0.12625 -55.06446,0.12625 l 217.68788,0 c 0,0 12.2481,-0.50507 12.2481,-12.24809 0,-11.74303 0,-311.25326 0,-311.25326 0,0 -0.25253,-10.29093 -10.29093,-10.29093 -10.03839,0 -414.60449,0 -414.60449,0 0,0 -11.964,-0.25254 -11.964,11.964 0,12.21653 0,310.46407 0,310.46407 0,0 -0.75761,10.02261 10.02261,10.02261 10.78022,0 173.16225,0 173.16225,0 0,0 -3.03046,62.96091 -19.69798,62.96091 -16.66752,0 -33.08249,0 -33.08249,0 0,0 -9.59645,-1.51523 -9.59645,9.59645 0,11.11168 0.25253,11.36422 0.25253,11.36422 z"
       id="path2996"
       inkscape:connector-curvature="0"
       sodipodi:nodetypes="cccscccccscscscscscsc" />
    <path
       style="fill:#5f8732;fill-opacity:1;stroke:#224e25;stroke-width:4.01951265;stroke-linecap:butt;stroke-linejoin:round;stroke-miterlimit:4;stroke-opacity:1;stroke-dasharray:none"
       d="m 208.93754,327.37193 337.83924,0 c 0,0 15.53489,1.44263 15.53489,15.6885 0,14.24586 0,223.78632 0,223.78632 0,0 0,15.23766 -15.08848,15.23766 -15.08849,0 -338.64276,0 -338.64276,0 0,0 -14.32961,1.08197 -14.32961,-14.47128 0,-15.55324 0,-226.17565 0,-226.17565 0,0 -1.74097,-14.06555 14.68672,-14.06555 z"
       id="path3786"
       inkscape:connector-curvature="0" />
  </g>
</svg>
