<?xml version="1.0" encoding="utf-8"?>
<!-- Generator: Adobe Illustrator 20.1.0, SVG Export Plug-In . SVG Version: 6.00 Build 0)  -->
<svg version="1.1" id="Full_Colour" xmlns="http://www.w3.org/2000/svg" xmlns:xlink="http://www.w3.org/1999/xlink" x="0px"
	 y="0px" viewBox="0 0 311.8 113.4" style="enable-background:new 0 0 311.8 113.4;" xml:space="preserve">
<style type="text/css">
	.st0{fill:#566471;}
	.st1{fill:#A3CD3D;}
	.st2{fill:#C54D58;}
	.st3{fill:#5AC4BC;}
</style>
<g>
	<path class="st0" d="M116.2,52.4v25.3H112V52.4h-3.7v-3.2h3.7v-5.4c0-4.3,2.4-7.7,7.3-7.7h3v3.6H120c-2.7,0-3.9,1.6-3.9,4.2v5.3
		h6.1v3.2H116.2z"/>
	<path class="st0" d="M128.5,41.1c-1.6,0-2.9-1.3-2.9-2.9c0-1.6,1.3-2.9,2.9-2.9c1.6,0,2.9,1.3,2.9,2.9
		C131.4,39.8,130.1,41.1,128.5,41.1z"/>
	<rect x="126.4" y="49" class="st0" width="4.2" height="28.7"/>
	<path class="st0" d="M147.5,90.9c-4.3,0-6.7-1.1-9.7-3.8l2.7-2.7c2.1,1.9,3.6,2.9,6.9,2.9c5.5,0,7.9-3.9,7.9-8.8v-4.5
		c-2.3,3-5,3.7-8,3.7c-2.9,0-5.4-1-6.9-2.6c-2.9-2.9-3.5-7.3-3.5-12s0.6-9.1,3.5-12c1.5-1.5,4.1-2.5,7-2.5c3.1,0,5.7,0.7,8,3.7V49
		h4.1v29.6C159.4,85.7,155,90.9,147.5,90.9z M148.1,52.4c-6.2,0-7.2,5.4-7.2,10.7c0,5.4,0.9,10.7,7.2,10.7c6.2,0,7.1-5.4,7.1-10.7
		C155.2,57.7,154.4,52.4,148.1,52.4z"/>
	<path class="st0" d="M176,78c-4.8,0-9.1-0.5-12.9-4.4l5-5c2.5,2.5,5.8,2.9,8.1,2.9c2.6,0,5.4-0.9,5.4-3.1c0-1.5-0.8-2.6-3.2-2.8
		l-4.8-0.5c-5.5-0.5-8.9-2.9-8.9-8.5c0-6.3,5.5-9.7,11.7-9.7c4.7,0,8.7,0.8,11.6,3.6l-4.7,4.7c-1.8-1.6-4.4-2-7.1-2
		c-3,0-4.3,1.4-4.3,2.9c0,1.1,0.5,2.4,3.2,2.6l4.8,0.5c6,0.6,9,3.8,9,8.9C188.9,74.8,183.2,78,176,78z"/>
	<path class="st0" d="M209.8,77.7V59.1c0-4-2.6-5.4-5-5.4c-2.4,0-4.9,1.4-4.9,5.4v18.5h-7.6V36.2h7.6v13.9c2-2.1,4.6-3.2,7.3-3.2
		c6.7,0,10.1,4.7,10.1,11.1v19.7H209.8z"/>
	<path class="st0" d="M238.2,77.7v-2.6c-2,2-4,2.9-7.5,2.9c-3.4,0-6-0.9-7.8-2.7c-1.6-1.7-2.5-4.1-2.5-6.8c0-4.8,3.3-8.8,10.4-8.8
		h7.2v-1.5c0-3.3-1.6-4.8-5.7-4.8c-2.9,0-4.3,0.7-5.8,2.5l-4.8-4.7c3-3.3,5.9-4.2,11-4.2c8.5,0,12.9,3.6,12.9,10.7v20H238.2z
		 M238,64.9h-6c-2.7,0-4.3,1.3-4.3,3.4c0,2.1,1.4,3.5,4.4,3.5c2.1,0,3.4-0.2,4.8-1.5c0.8-0.8,1.1-2,1.1-3.8V64.9z"/>
	<path class="st0" d="M267.4,55.6c-1.2-1.2-2.2-1.8-4-1.8c-2.3,0-4.9,1.8-4.9,5.6v18.3h-7.6V47.3h7.4v2.9c1.5-1.8,4.4-3.3,7.6-3.3
		c3,0,5.1,0.8,7.2,2.9L267.4,55.6z"/>
	<path class="st0" d="M278.6,64.9c0,3.9,2.4,6.8,6.7,6.8c3.3,0,5-0.9,6.9-2.9l4.6,4.5c-3.1,3.1-6.1,4.8-11.5,4.8
		c-7.2,0-14.1-3.3-14.1-15.6c0-9.9,5.4-15.5,13.2-15.5c8.5,0,13.2,6.2,13.2,14.5v3.4H278.6z M289.5,56.4c-0.8-1.8-2.5-3.1-5.1-3.1
		s-4.3,1.3-5.1,3.1c-0.5,1.1-0.6,1.9-0.7,3.3h11.6C290.1,58.3,289.9,57.5,289.5,56.4z"/>
</g>
<g>
	<path class="st0" d="M83.2,27c-1.2,1.6-3.4,2-5,0.8c-1.6-1.2-2-3.4-0.8-5c1.2-1.6,3.4-2,5-0.8C84,23.1,84.4,25.4,83.2,27"/>
	<path class="st0" d="M69.5,25.7c0.8-1.5,2.6-2.1,4.1-1.3c1.5,0.8,2.1,2.6,1.3,4.1c-0.8,1.5-2.6,2.1-4.1,1.3
		C69.3,29.1,68.7,27.2,69.5,25.7"/>
	<path class="st0" d="M68.1,31.2c-0.4,1.3-1.9,2.1-3.2,1.6c-1.3-0.4-2.1-1.9-1.6-3.2c0.4-1.3,1.9-2.1,3.2-1.6
		C67.8,28.4,68.5,29.8,68.1,31.2"/>
	<path class="st0" d="M62.8,34.2c-0.2,1.2-1.3,1.9-2.4,1.8c-1.1-0.2-1.9-1.3-1.8-2.4c0.2-1.2,1.3-1.9,2.4-1.8
		C62.2,32,63,33.1,62.8,34.2"/>
	<path class="st0" d="M58.9,37.6c0,1-0.8,1.7-1.8,1.7c-1,0-1.8-0.8-1.8-1.7c0-1,0.8-1.7,1.8-1.7C58.1,35.9,58.9,36.7,58.9,37.6"/>
	<path class="st0" d="M56.1,41c0.1,0.8-0.4,1.5-1.2,1.6c-0.8,0.1-1.5-0.4-1.6-1.2c-0.1-0.8,0.4-1.5,1.2-1.6
		C55.2,39.7,56,40.2,56.1,41"/>
	<path class="st1" d="M36.9,90.7c-1.2,1.6-3.4,2-5,0.8c-1.6-1.2-2-3.4-0.8-5c1.2-1.6,3.4-2,5-0.8C37.7,86.8,38.1,89,36.9,90.7"/>
	<path class="st1" d="M39.3,84.9c0.8-1.5,2.6-2.1,4.1-1.3c1.5,0.8,2.1,2.6,1.3,4.1c-0.8,1.5-2.6,2.1-4.1,1.3
		C39.2,88.2,38.6,86.4,39.3,84.9"/>
	<path class="st1" d="M51,83.8c-0.4,1.3-1.9,2.1-3.2,1.6c-1.3-0.4-2.1-1.9-1.6-3.2c0.4-1.3,1.9-2.1,3.2-1.6
		C50.7,81,51.4,82.5,51,83.8"/>
	<path class="st1" d="M55.6,79.8c-0.2,1.2-1.3,1.9-2.4,1.8c-1.2-0.2-1.9-1.3-1.8-2.4c0.2-1.2,1.3-1.9,2.4-1.8
		C55,77.6,55.8,78.6,55.6,79.8"/>
	<path class="st1" d="M58.9,75.8c0,1-0.8,1.7-1.8,1.7c-1,0-1.8-0.8-1.8-1.7c0-1,0.8-1.7,1.8-1.7C58.1,74,58.9,74.8,58.9,75.8"/>
	<path class="st1" d="M61,72c0.1,0.8-0.4,1.5-1.2,1.6c-0.8,0.1-1.5-0.4-1.6-1.2c-0.1-0.8,0.4-1.5,1.2-1.6C60.2,70.6,60.9,71.2,61,72
		"/>
	<path class="st1" d="M20.8,41.1c1.9,0.6,2.9,2.7,2.3,4.6c-0.6,1.9-2.7,2.9-4.5,2.3c-1.9-0.6-2.9-2.7-2.3-4.5
		C16.9,41.5,18.9,40.5,20.8,41.1"/>
	<path class="st1" d="M24.8,48.5c1.7,0.3,2.8,1.8,2.5,3.5c-0.3,1.7-1.8,2.8-3.5,2.5c-1.7-0.3-2.8-1.8-2.5-3.5
		C21.6,49.4,23.2,48.2,24.8,48.5"/>
	<path class="st1" d="M29.5,54.2c1.4,0,2.5,1.1,2.5,2.5c0,1.4-1.1,2.5-2.5,2.5c-1.4,0-2.5-1.1-2.5-2.5
		C26.9,55.3,28.1,54.2,29.5,54.2"/>
	<path class="st1" d="M34,58.2c1.2-0.2,2.2,0.6,2.4,1.8c0.2,1.2-0.6,2.2-1.8,2.4c-1.2,0.2-2.2-0.6-2.4-1.8
		C32.1,59.5,32.9,58.4,34,58.2"/>
	<path class="st1" d="M38.5,60.9c0.9-0.3,1.9,0.2,2.2,1.1c0.3,0.9-0.2,1.9-1.1,2.2c-0.9,0.3-1.9-0.2-2.2-1.1
		C37,62.2,37.6,61.2,38.5,60.9"/>
	<path class="st1" d="M42.5,62.5c0.7-0.4,1.6-0.1,1.9,0.6c0.4,0.7,0.1,1.6-0.6,1.9c-0.7,0.4-1.6,0.1-1.9-0.6
		C41.5,63.8,41.8,62.9,42.5,62.5"/>
	<path class="st0" d="M95.7,65.4c1.9,0.6,2.9,2.6,2.3,4.5c-0.6,1.9-2.7,2.9-4.5,2.3c-1.9-0.6-2.9-2.7-2.3-4.6
		C91.8,65.8,93.8,64.8,95.7,65.4"/>
	<path class="st0" d="M90.4,58.9c1.7,0.3,2.8,1.8,2.5,3.5c-0.3,1.7-1.8,2.8-3.5,2.5c-1.7-0.3-2.8-1.8-2.5-3.5
		C87.2,59.7,88.8,58.6,90.4,58.9"/>
	<path class="st0" d="M84.8,54.2c1.4,0,2.5,1.1,2.5,2.5c0,1.4-1.1,2.5-2.5,2.5c-1.4,0-2.5-1.1-2.5-2.5
		C82.3,55.3,83.4,54.2,84.8,54.2"/>
	<path class="st0" d="M79.6,51c1.2-0.2,2.2,0.6,2.4,1.8c0.2,1.2-0.6,2.2-1.8,2.4c-1.2,0.2-2.2-0.6-2.4-1.8
		C77.6,52.3,78.4,51.2,79.6,51"/>
	<path class="st0" d="M74.7,49.1c0.9-0.3,1.9,0.2,2.2,1.1c0.3,0.9-0.2,1.9-1.1,2.2c-0.9,0.3-1.9-0.2-2.2-1.1
		C73.3,50.4,73.8,49.4,74.7,49.1"/>
	<path class="st0" d="M70.5,48.3c0.7-0.4,1.6-0.1,1.9,0.6c0.4,0.7,0.1,1.6-0.6,1.9c-0.7,0.4-1.6,0.1-1.9-0.6
		C69.5,49.5,69.7,48.7,70.5,48.3"/>
	<path class="st0" d="M36.9,22.7c1.2,1.6,0.8,3.9-0.8,5c-1.6,1.2-3.9,0.8-5-0.8c-1.2-1.6-0.8-3.9,0.8-5
		C33.5,20.8,35.8,21.1,36.9,22.7"/>
	<path class="st0" d="M35.8,31.1c1.2,1.2,1.2,3.1,0,4.3c-1.2,1.2-3.1,1.2-4.3,0c-1.2-1.2-1.2-3.1,0-4.3
		C32.7,29.9,34.6,29.9,35.8,31.1"/>
	<path class="st0" d="M36.2,38.4c1.1,0.8,1.4,2.4,0.6,3.5c-0.8,1.1-2.4,1.4-3.5,0.6c-1.1-0.8-1.4-2.4-0.6-3.5
		C33.5,37.8,35.1,37.6,36.2,38.4"/>
	<path class="st0" d="M37.6,44.3c1,0.5,1.5,1.8,0.9,2.8c-0.5,1-1.8,1.5-2.8,0.9c-1-0.5-1.5-1.8-0.9-2.8
		C35.2,44.2,36.5,43.8,37.6,44.3"/>
	<path class="st0" d="M39.5,49.1c0.9,0.3,1.4,1.3,1.1,2.2c-0.3,0.9-1.3,1.4-2.2,1.1c-0.9-0.3-1.4-1.3-1.1-2.2
		C37.6,49.3,38.6,48.8,39.5,49.1"/>
	<path class="st0" d="M41.9,52.8c0.8,0.1,1.3,0.9,1.2,1.7c-0.1,0.8-0.9,1.3-1.6,1.2c-0.8-0.1-1.3-0.9-1.2-1.6
		C40.4,53.2,41.1,52.7,41.9,52.8"/>
	<path class="st1" d="M83.2,86.4c1.2,1.6,0.8,3.9-0.8,5c-1.6,1.2-3.9,0.8-5-0.8c-1.2-1.6-0.8-3.9,0.8-5C79.8,84.4,82,84.8,83.2,86.4
		"/>
	<path class="st1" d="M82.8,78c1.2,1.2,1.2,3.1,0,4.3c-1.2,1.2-3.1,1.2-4.3,0c-1.2-1.2-1.2-3.1,0-4.3C79.7,76.8,81.6,76.8,82.8,78"
		/>
	<path class="st1" d="M81,70.9c1.1,0.8,1.4,2.4,0.6,3.5c-0.8,1.1-2.4,1.4-3.5,0.6c-1.1-0.8-1.4-2.4-0.6-3.5
		C78.3,70.3,79.9,70.1,81,70.9"/>
	<path class="st1" d="M78.6,65.3c1,0.5,1.5,1.8,0.9,2.8c-0.5,1-1.8,1.5-2.8,0.9c-1-0.5-1.5-1.8-0.9-2.8
		C76.3,65.2,77.6,64.7,78.6,65.3"/>
	<path class="st1" d="M75.8,60.9c0.9,0.3,1.4,1.3,1.1,2.2c-0.3,0.9-1.3,1.4-2.2,1.1c-0.9-0.3-1.4-1.3-1.1-2.2
		C73.9,61.1,74.9,60.6,75.8,60.9"/>
	<path class="st1" d="M72.9,57.7c0.8,0.1,1.3,0.9,1.2,1.6c-0.1,0.8-0.9,1.3-1.6,1.2c-0.8-0.1-1.3-0.9-1.2-1.7
		C71.3,58.1,72.1,57.6,72.9,57.7"/>
	<path class="st1" d="M93.5,41.1c1.9-0.6,3.9,0.4,4.5,2.3c0.6,1.9-0.4,3.9-2.3,4.5c-1.9,0.6-3.9-0.4-4.5-2.3
		C90.5,43.7,91.6,41.7,93.5,41.1"/>
	<path class="st1" d="M85.3,38.9c1.5-0.8,3.3-0.2,4.1,1.3c0.8,1.5,0.2,3.3-1.3,4.1c-1.5,0.8-3.3,0.2-4.1-1.3
		C83.2,41.5,83.8,39.7,85.3,38.9"/>
	<path class="st1" d="M78,38.4c1.1-0.8,2.7-0.6,3.5,0.6c0.8,1.1,0.6,2.7-0.6,3.5c-1.1,0.8-2.7,0.6-3.5-0.6
		C76.6,40.8,76.9,39.2,78,38.4"/>
	<path class="st1" d="M71.9,38.9c0.8-0.8,2.2-0.8,3,0c0.8,0.8,0.8,2.2,0,3c-0.8,0.8-2.2,0.8-3,0C71.1,41.1,71.1,39.7,71.9,38.9"/>
	<path class="st1" d="M69.8,42.3c-0.6,0.8-1.7,1-2.4,0.4c-0.8-0.6-1-1.7-0.4-2.4c0.6-0.8,1.7-1,2.4-0.4
		C70.2,40.4,70.3,41.5,69.8,42.3"/>
	<path class="st1" d="M65.5,43.4c-0.4,0.7-1.2,1-1.9,0.6c-0.7-0.4-1-1.2-0.6-1.9c0.4-0.7,1.2-1,1.9-0.6
		C65.6,41.8,65.9,42.7,65.5,43.4"/>
	<path class="st0" d="M18.6,65.4c1.9-0.6,3.9,0.4,4.5,2.3c0.6,1.9-0.4,3.9-2.3,4.6c-1.9,0.6-3.9-0.4-4.5-2.3
		C15.7,68.1,16.7,66,18.6,65.4"/>
	<path class="st0" d="M26.2,69c1.5-0.8,3.3-0.2,4.1,1.3c0.8,1.5,0.2,3.3-1.3,4.1c-1.5,0.8-3.3,0.2-4.1-1.3
		C24.1,71.6,24.7,69.8,26.2,69"/>
	<path class="st0" d="M33.3,70.9c1.1-0.8,2.7-0.6,3.5,0.6c0.8,1.1,0.6,2.7-0.6,3.5c-1.1,0.8-2.7,0.6-3.5-0.6
		C31.9,73.3,32.1,71.7,33.3,70.9"/>
	<path class="st0" d="M39.3,71.5c0.8-0.8,2.2-0.8,3,0c0.8,0.8,0.8,2.2,0,3c-0.8,0.8-2.2,0.8-3,0C38.5,73.7,38.5,72.3,39.3,71.5"/>
	<path class="st0" d="M47.3,73.1c-0.6,0.8-1.7,1-2.4,0.4c-0.8-0.6-1-1.7-0.4-2.4c0.6-0.8,1.7-1,2.4-0.4
		C47.7,71.3,47.9,72.4,47.3,73.1"/>
	<path class="st0" d="M51.3,71.3c-0.4,0.7-1.2,1-1.9,0.6c-0.7-0.4-1-1.2-0.6-1.9c0.4-0.7,1.2-1,1.9-0.6
		C51.4,69.7,51.7,70.6,51.3,71.3"/>
	<path class="st1" d="M60.8,17.3c0,2-1.6,3.6-3.6,3.6c-2,0-3.6-1.6-3.6-3.6c0-2,1.6-3.6,3.6-3.6C59.1,13.7,60.8,15.3,60.8,17.3"/>
	<path class="st1" d="M48.9,24.4c-0.3-1.7,0.9-3.2,2.5-3.5c1.7-0.3,3.2,0.9,3.5,2.5c0.3,1.7-0.9,3.2-2.5,3.5
		C50.8,27.2,49.2,26,48.9,24.4"/>
	<path class="st1" d="M51,29.6c0.4,1.3-0.3,2.8-1.6,3.2c-1.3,0.4-2.8-0.3-3.2-1.6c-0.4-1.3,0.3-2.8,1.6-3.2
		C49.1,27.5,50.6,28.3,51,29.6"/>
	<path class="st1" d="M48.6,35.2c0.5,1,0.1,2.3-0.9,2.9c-1,0.5-2.3,0.1-2.8-0.9c-0.5-1-0.1-2.3,0.9-2.8C46.8,33.7,48,34.1,48.6,35.2
		"/>
	<path class="st1" d="M47.3,40.2c0.6,0.8,0.4,1.9-0.4,2.4c-0.8,0.6-1.9,0.4-2.4-0.4c-0.6-0.8-0.4-1.9,0.4-2.4
		C45.7,39.3,46.8,39.5,47.3,40.2"/>
	<path class="st1" d="M47.1,44.6c0.6,0.6,0.6,1.5,0,2c-0.6,0.6-1.5,0.6-2,0c-0.6-0.6-0.6-1.5,0-2C45.6,44,46.5,44,47.1,44.6"/>
	<path class="st0" d="M60.8,96c0,2-1.6,3.6-3.6,3.6c-2,0-3.6-1.6-3.6-3.6c0-2,1.6-3.6,3.6-3.6C59.1,92.4,60.8,94.1,60.8,96"/>
	<path class="st0" d="M59.3,90c-0.3-1.7,0.9-3.2,2.5-3.5c1.7-0.3,3.2,0.9,3.5,2.5c0.3,1.7-0.9,3.2-2.5,3.5
		C61.1,92.8,59.6,91.6,59.3,90"/>
	<path class="st0" d="M68.1,82.2c0.4,1.3-0.3,2.8-1.6,3.2c-1.3,0.4-2.8-0.3-3.2-1.6c-0.4-1.3,0.3-2.8,1.6-3.2
		C66.2,80.2,67.7,80.9,68.1,82.2"/>
	<path class="st0" d="M69.5,76.3c0.5,1,0.1,2.3-0.9,2.8c-1,0.5-2.3,0.1-2.9-0.9c-0.5-1-0.1-2.3,0.9-2.8C67.7,74.8,69,75.2,69.5,76.3
		"/>
	<path class="st0" d="M69.8,71.1c0.6,0.8,0.4,1.9-0.4,2.4c-0.8,0.6-1.9,0.4-2.4-0.4c-0.6-0.8-0.4-1.9,0.4-2.4
		C68.1,70.1,69.2,70.3,69.8,71.1"/>
	<path class="st0" d="M69.2,66.8c0.6,0.6,0.6,1.5,0,2c-0.6,0.6-1.5,0.6-2,0c-0.6-0.6-0.6-1.5,0-2C67.8,66.2,68.7,66.2,69.2,66.8"/>
	<path class="st2" d="M72.7,20.4c-0.6,1.9-2.7,2.9-4.6,2.3c-1.9-0.6-2.9-2.7-2.3-4.5c0.6-1.9,2.6-2.9,4.5-2.3
		C72.3,16.4,73.4,18.5,72.7,20.4"/>
	<path class="st2" d="M59.3,23.4c0.3-1.7,1.8-2.8,3.5-2.5c1.7,0.3,2.8,1.8,2.5,3.5c-0.3,1.7-1.8,2.8-3.5,2.5
		C60.2,26.6,59.1,25.1,59.3,23.4"/>
	<path class="st2" d="M59.7,29c0,1.4-1.1,2.5-2.5,2.5c-1.4,0-2.5-1.1-2.5-2.5c0-1.4,1.1-2.5,2.5-2.5C58.5,26.5,59.7,27.6,59.7,29"/>
	<path class="st2" d="M55.6,33.6c0.2,1.2-0.6,2.2-1.8,2.4c-1.2,0.2-2.2-0.6-2.4-1.8c-0.2-1.2,0.6-2.2,1.8-2.4
		C54.4,31.6,55.4,32.4,55.6,33.6"/>
	<path class="st2" d="M52.9,38c0.3,0.9-0.2,1.9-1.1,2.2c-0.9,0.3-1.9-0.2-2.2-1.1c-0.3-0.9,0.2-1.9,1.1-2.2
		C51.6,36.6,52.6,37.1,52.9,38"/>
	<path class="st2" d="M51.3,42.1c0.4,0.7,0.1,1.6-0.6,1.9c-0.7,0.4-1.6,0.1-1.9-0.6c-0.4-0.7-0.1-1.6,0.6-1.9
		C50.1,41.1,50.9,41.4,51.3,42.1"/>
	<path class="st3" d="M48.4,95.2c-0.6,1.9-2.7,2.9-4.6,2.3c-1.9-0.6-2.9-2.7-2.3-4.5c0.6-1.9,2.7-2.9,4.5-2.3
		C48,91.3,49,93.3,48.4,95.2"/>
	<path class="st3" d="M48.9,89c0.3-1.7,1.8-2.8,3.5-2.5c1.7,0.3,2.8,1.8,2.5,3.5c-0.3,1.7-1.8,2.8-3.5,2.5
		C49.8,92.2,48.7,90.7,48.9,89"/>
	<path class="st3" d="M59.7,84.4c0,1.4-1.1,2.5-2.5,2.5c-1.4,0-2.5-1.1-2.5-2.5c0-1.4,1.1-2.5,2.5-2.5C58.5,81.8,59.7,83,59.7,84.4"
		/>
	<path class="st3" d="M62.8,79.1c0.2,1.2-0.6,2.2-1.8,2.4c-1.2,0.2-2.2-0.6-2.4-1.8c-0.2-1.2,0.6-2.2,1.8-2.4
		C61.6,77.2,62.7,78,62.8,79.1"/>
	<path class="st3" d="M64.7,74.3c0.3,0.9-0.2,1.9-1.1,2.2c-0.9,0.3-1.9-0.2-2.2-1.1c-0.3-0.9,0.2-1.9,1.1-2.2
		C63.4,72.9,64.4,73.4,64.7,74.3"/>
	<path class="st3" d="M65.5,70c0.4,0.7,0.1,1.6-0.6,1.9c-0.7,0.4-1.6,0.1-1.9-0.6c-0.4-0.7-0.1-1.6,0.6-1.9
		C64.3,69,65.2,69.3,65.5,70"/>
	<path class="st3" d="M17.8,53.1c2,0,3.6,1.6,3.6,3.6c0,2-1.6,3.6-3.6,3.6c-2,0-3.6-1.6-3.6-3.6C14.2,54.7,15.8,53.1,17.8,53.1"/>
	<path class="st3" d="M23.9,58.9c1.7-0.3,3.2,0.9,3.5,2.5c0.3,1.7-0.9,3.2-2.5,3.5c-1.7,0.3-3.2-0.9-3.5-2.5
		C21.1,60.7,22.2,59.1,23.9,58.9"/>
	<path class="st3" d="M30,62.8c1.3-0.4,2.8,0.3,3.2,1.6c0.4,1.3-0.3,2.8-1.6,3.2c-1.3,0.4-2.8-0.3-3.2-1.6
		C28,64.7,28.7,63.3,30,62.8"/>
	<path class="st3" d="M35.6,65.3c1-0.5,2.3-0.1,2.8,0.9c0.5,1,0.1,2.3-0.9,2.8c-1,0.5-2.3,0.1-2.8-0.9
		C34.2,67.1,34.6,65.8,35.6,65.3"/>
	<path class="st3" d="M40.7,66.5c0.8-0.6,1.9-0.4,2.4,0.4c0.6,0.8,0.4,1.9-0.4,2.4c-0.8,0.6-1.9,0.4-2.4-0.4
		C39.7,68.1,39.9,67.1,40.7,66.5"/>
	<path class="st3" d="M45,66.8c0.6-0.6,1.5-0.6,2,0c0.6,0.6,0.6,1.5,0,2c-0.6,0.6-1.5,0.6-2,0C44.5,68.2,44.5,67.3,45,66.8"/>
	<path class="st2" d="M96.5,53.1c2,0,3.6,1.6,3.6,3.6c0,2-1.6,3.6-3.6,3.6c-2,0-3.6-1.6-3.6-3.6C92.9,54.7,94.5,53.1,96.5,53.1"/>
	<path class="st2" d="M89.5,48.5c1.7-0.3,3.2,0.9,3.5,2.5c0.3,1.7-0.9,3.2-2.5,3.5c-1.7,0.3-3.2-0.9-3.5-2.5
		C86.7,50.3,87.8,48.8,89.5,48.5"/>
	<path class="st2" d="M82.7,45.7c1.3-0.4,2.8,0.3,3.2,1.6c0.4,1.3-0.3,2.8-1.6,3.2c-1.3,0.4-2.8-0.3-3.2-1.6
		C80.6,47.6,81.3,46.2,82.7,45.7"/>
	<path class="st2" d="M76.7,44.3c1-0.5,2.3-0.1,2.8,0.9c0.5,1,0.1,2.3-0.9,2.8c-1,0.5-2.3,0.1-2.8-0.9
		C75.3,46.1,75.7,44.9,76.7,44.3"/>
	<path class="st2" d="M71.5,44.1c0.8-0.6,1.9-0.4,2.4,0.4c0.6,0.8,0.4,1.9-0.4,2.4c-0.8,0.6-1.9,0.4-2.4-0.4
		C70.6,45.7,70.8,44.6,71.5,44.1"/>
	<path class="st2" d="M67.2,44.6c0.6-0.6,1.5-0.6,2,0c0.6,0.6,0.6,1.5,0,2c-0.6,0.6-1.5,0.6-2,0C66.6,46.1,66.6,45.2,67.2,44.6"/>
	<path class="st2" d="M27.4,30.6c1.6,1.2,2,3.4,0.8,5c-1.2,1.6-3.4,2-5,0.8c-1.6-1.2-2-3.4-0.8-5C23.5,29.8,25.8,29.5,27.4,30.6"/>
	<path class="st2" d="M28.9,38.9c1.5,0.8,2.1,2.6,1.3,4.1c-0.8,1.5-2.6,2.1-4.1,1.3c-1.5-0.8-2.1-2.6-1.3-4.1
		C25.6,38.7,27.4,38.1,28.9,38.9"/>
	<path class="st2" d="M31.6,45.7c1.3,0.4,2.1,1.9,1.6,3.2c-0.4,1.3-1.9,2.1-3.2,1.6c-1.3-0.4-2.1-1.9-1.6-3.2
		C28.8,46,30.3,45.3,31.6,45.7"/>
	<path class="st2" d="M34.7,51c1.2,0.2,1.9,1.3,1.8,2.4c-0.2,1.2-1.3,1.9-2.4,1.8c-1.1-0.2-1.9-1.3-1.8-2.4
		C32.5,51.6,33.5,50.8,34.7,51"/>
	<path class="st2" d="M38.1,54.9c1,0,1.7,0.8,1.7,1.7c0,1-0.8,1.7-1.7,1.7c-1,0-1.8-0.8-1.8-1.7C36.3,55.7,37.1,54.9,38.1,54.9"/>
	<path class="st2" d="M41.4,57.7c0.8-0.1,1.5,0.4,1.6,1.2c0.1,0.8-0.4,1.5-1.2,1.7c-0.8,0.1-1.5-0.4-1.6-1.2
		C40.1,58.6,40.6,57.9,41.4,57.7"/>
	<path class="st3" d="M91.1,76.9c1.6,1.2,2,3.4,0.8,5c-1.2,1.6-3.4,2-5,0.8c-1.6-1.2-2-3.4-0.8-5C87.2,76.1,89.5,75.7,91.1,76.9"/>
	<path class="st3" d="M88.1,69c1.5,0.8,2.1,2.6,1.3,4.1c-0.8,1.5-2.6,2.1-4.1,1.3c-1.5-0.8-2.1-2.6-1.3-4.1
		C84.8,68.9,86.6,68.3,88.1,69"/>
	<path class="st3" d="M84.2,62.8c1.3,0.4,2.1,1.9,1.6,3.2c-0.4,1.3-1.9,2.1-3.2,1.6c-1.3-0.4-2.1-1.9-1.6-3.2
		C81.5,63.1,82.9,62.4,84.2,62.8"/>
	<path class="st3" d="M80.2,58.2c1.2,0.2,1.9,1.3,1.8,2.4c-0.2,1.2-1.3,1.9-2.4,1.8c-1.2-0.2-1.9-1.3-1.8-2.4
		C78,58.8,79.1,58,80.2,58.2"/>
	<path class="st3" d="M76.2,54.9c1,0,1.7,0.8,1.7,1.7c0,1-0.8,1.7-1.7,1.7c-1,0-1.7-0.8-1.7-1.7C74.5,55.7,75.2,54.9,76.2,54.9"/>
	<path class="st3" d="M72.4,52.8c0.8-0.1,1.5,0.4,1.6,1.2c0.1,0.8-0.4,1.5-1.2,1.6c-0.8,0.1-1.5-0.4-1.6-1.2
		C71.1,53.7,71.6,52.9,72.4,52.8"/>
	<path class="st3" d="M86.9,30.6c1.6-1.2,3.9-0.8,5,0.8c1.2,1.6,0.8,3.9-0.8,5c-1.6,1.2-3.9,0.8-5-0.8
		C84.9,34.1,85.2,31.8,86.9,30.6"/>
	<path class="st3" d="M78.5,31.1c1.2-1.2,3.1-1.2,4.3,0c1.2,1.2,1.2,3.1,0,4.3c-1.2,1.2-3.1,1.2-4.3,0
		C77.3,34.2,77.3,32.2,78.5,31.1"/>
	<path class="st3" d="M75.5,35.8c-0.8,1.1-2.4,1.4-3.5,0.6c-1.1-0.8-1.4-2.4-0.6-3.5c0.8-1.1,2.4-1.4,3.5-0.6
		C76,33.1,76.3,34.7,75.5,35.8"/>
	<path class="st3" d="M69.5,37.1c-0.5,1-1.8,1.5-2.8,0.9c-1-0.5-1.5-1.8-0.9-2.8c0.5-1,1.8-1.5,2.8-0.9C69.6,34.8,70,36.1,69.5,37.1
		"/>
	<path class="st3" d="M64.7,39.1c-0.3,0.9-1.3,1.4-2.2,1.1c-0.9-0.3-1.4-1.3-1.1-2.2c0.3-0.9,1.3-1.4,2.2-1.1
		C64.5,37.2,65,38.2,64.7,39.1"/>
	<path class="st3" d="M61,41.4c-0.1,0.8-0.9,1.3-1.7,1.2c-0.8-0.1-1.3-0.9-1.2-1.6c0.1-0.8,0.9-1.3,1.7-1.2
		C60.6,39.9,61.1,40.6,61,41.4"/>
	<path class="st2" d="M23.2,76.9c1.6-1.2,3.9-0.8,5,0.8c1.2,1.6,0.8,3.9-0.8,5c-1.6,1.2-3.9,0.8-5-0.8
		C21.2,80.3,21.6,78.1,23.2,76.9"/>
	<path class="st2" d="M31.5,78c1.2-1.2,3.1-1.2,4.3,0c1.2,1.2,1.2,3.1,0,4.3c-1.2,1.2-3.1,1.2-4.3,0C30.3,81.1,30.3,79.2,31.5,78"/>
	<path class="st2" d="M42.9,80.6c-0.8,1.1-2.4,1.4-3.6,0.6c-1.1-0.8-1.4-2.4-0.6-3.5c0.8-1.1,2.4-1.4,3.5-0.6
		C43.5,77.8,43.8,79.4,42.9,80.6"/>
	<path class="st2" d="M48.6,78.2c-0.5,1-1.8,1.5-2.9,0.9c-1-0.5-1.5-1.8-0.9-2.8c0.5-1,1.8-1.5,2.8-0.9
		C48.7,75.9,49.1,77.2,48.6,78.2"/>
	<path class="st2" d="M52.9,75.4c-0.3,0.9-1.3,1.4-2.2,1.1c-0.9-0.3-1.4-1.3-1.1-2.2c0.3-0.9,1.3-1.4,2.2-1.1
		C52.7,73.5,53.2,74.4,52.9,75.4"/>
	<path class="st2" d="M56.1,72.4c-0.1,0.8-0.9,1.3-1.6,1.2c-0.8-0.1-1.3-0.9-1.2-1.6c0.1-0.8,0.9-1.3,1.7-1.2
		C55.7,70.9,56.2,71.6,56.1,72.4"/>
	<path class="st3" d="M48.4,18.1c0.6,1.9-0.4,3.9-2.3,4.5c-1.9,0.6-3.9-0.4-4.5-2.3c-0.6-1.9,0.4-3.9,2.3-4.5
		C45.8,15.2,47.8,16.2,48.4,18.1"/>
	<path class="st3" d="M44.8,25.7c0.8,1.5,0.2,3.3-1.3,4.1c-1.5,0.8-3.3,0.2-4.1-1.3c-0.8-1.5-0.2-3.3,1.3-4.1
		C42.2,23.6,44,24.2,44.8,25.7"/>
	<path class="st3" d="M42.9,32.8c0.8,1.1,0.6,2.7-0.6,3.5c-1.1,0.8-2.7,0.6-3.5-0.6c-0.8-1.1-0.6-2.7,0.6-3.5
		C40.5,31.4,42.1,31.7,42.9,32.8"/>
	<path class="st3" d="M42.3,38.9c0.8,0.8,0.8,2.2,0,3c-0.8,0.8-2.2,0.8-3,0c-0.8-0.8-0.8-2.2,0-3C40.2,38.1,41.5,38.1,42.3,38.9"/>
	<path class="st3" d="M42.7,44.1c0.8,0.6,1,1.7,0.4,2.4c-0.6,0.8-1.7,1-2.4,0.4c-0.8-0.6-0.9-1.7-0.4-2.4
		C40.9,43.7,42,43.5,42.7,44.1"/>
	<path class="st3" d="M43.8,48.3c0.7,0.4,1,1.2,0.6,1.9c-0.4,0.7-1.2,1-1.9,0.6c-0.7-0.4-1-1.2-0.6-1.9
		C42.2,48.2,43.1,47.9,43.8,48.3"/>
	<path class="st2" d="M72.7,93c0.6,1.9-0.4,3.9-2.3,4.5c-1.9,0.6-3.9-0.4-4.5-2.3c-0.6-1.9,0.4-3.9,2.3-4.5
		C70.1,90.1,72.1,91.1,72.7,93"/>
	<path class="st2" d="M74.9,84.9c0.8,1.5,0.2,3.3-1.3,4.1c-1.5,0.8-3.3,0.2-4.1-1.3c-0.8-1.5-0.2-3.3,1.3-4.1
		C72.3,82.8,74.2,83.4,74.9,84.9"/>
	<path class="st2" d="M75.5,77.6c0.8,1.1,0.6,2.7-0.6,3.5c-1.1,0.8-2.7,0.6-3.5-0.6c-0.8-1.1-0.6-2.7,0.6-3.5
		C73,76.2,74.6,76.5,75.5,77.6"/>
	<path class="st2" d="M74.9,71.5c0.8,0.8,0.8,2.2,0,3c-0.8,0.8-2.2,0.8-3,0c-0.8-0.8-0.8-2.2,0-3C72.8,70.7,74.1,70.7,74.9,71.5"/>
	<path class="st2" d="M73.6,66.5c0.8,0.6,1,1.7,0.4,2.4c-0.6,0.8-1.7,1-2.4,0.4c-0.8-0.6-1-1.7-0.4-2.4
		C71.7,66.1,72.8,65.9,73.6,66.5"/>
	<path class="st2" d="M71.8,62.5c0.7,0.4,1,1.2,0.6,1.9c-0.4,0.7-1.2,1-1.9,0.6c-0.7-0.4-1-1.2-0.6-1.9
		C70.2,62.4,71.1,62.2,71.8,62.5"/>
</g>
</svg>
