<?xml version="1.0" encoding="UTF-8" standalone="no"?>
<!-- Created with Inkscape (http://www.inkscape.org/) -->

<svg
   xmlns:dc="http://purl.org/dc/elements/1.1/"
   xmlns:cc="http://creativecommons.org/ns#"
   xmlns:rdf="http://www.w3.org/1999/02/22-rdf-syntax-ns#"
   xmlns:svg="http://www.w3.org/2000/svg"
   xmlns="http://www.w3.org/2000/svg"
   xmlns:sodipodi="http://sodipodi.sourceforge.net/DTD/sodipodi-0.dtd"
   xmlns:inkscape="http://www.inkscape.org/namespaces/inkscape"
   width="325.71759"
   height="355.84958"
   id="svg3006"
   version="1.1"
   inkscape:version="0.48.4 r9939"
   sodipodi:docname="checkmark.svg">
  <defs
     id="defs3008" />
  <sodipodi:namedview
     id="base"
     pagecolor="#ffffff"
     bordercolor="#666666"
     borderopacity="1.0"
     inkscape:pageopacity="0.0"
     inkscape:pageshadow="2"
     inkscape:zoom="0.30570768"
     inkscape:cx="-682.32384"
     inkscape:cy="-57.145104"
     inkscape:document-units="px"
     inkscape:current-layer="layer1"
     showgrid="false"
     inkscape:window-width="1366"
     inkscape:window-height="705"
     inkscape:window-x="-8"
     inkscape:window-y="-8"
     inkscape:window-maximized="1"
     fit-margin-top="0"
     fit-margin-left="0"
     fit-margin-right="0"
     fit-margin-bottom="0" />
  <metadata
     id="metadata3011">
    <rdf:RDF>
      <cc:Work
         rdf:about="">
        <dc:format>image/svg+xml</dc:format>
        <dc:type
           rdf:resource="http://purl.org/dc/dcmitype/StillImage" />
        <dc:title></dc:title>
      </cc:Work>
    </rdf:RDF>
  </metadata>
  <g
     inkscape:label="Layer 1"
     inkscape:groupmode="layer"
     id="layer1"
     transform="translate(-76.142846,-468.51261)">
    <path
       style="fill:#000000;fill-opacity:1"
       d="m 148.84963,821.11218 c -1.31724,-1.7875 -18.21515,-29.39273 -37.55089,-61.34495 -26.642354,-44.02637 -35.155894,-58.86441 -35.155894,-61.27235 0,-6.42408 15.02177,-18.4844 28.718454,-23.05678 7.86772,-2.62649 9.57669,-2.60307 12.70247,0.17408 1.39285,1.2375 11.8351,17.55 23.20501,36.25 11.36991,18.7 21.78096,35.75865 23.13567,37.90811 2.46311,3.90811 2.46311,3.90811 8.69024,-12.5 29.01194,-76.44468 70.45949,-140.79101 127.5224,-197.97546 43.05637,-43.14807 77.57379,-69.12584 93.93894,-70.69833 8.64604,-0.83077 10.41216,4.61526 3.76765,11.618 -1.74946,1.84377 -8.35583,7.33158 -14.68083,12.19514 -16.98094,13.05734 -28.79089,23.37226 -44.94184,39.25264 -69.98958,68.81708 -116.30817,151.81808 -141.01881,252.6999 -2.22289,9.075 -4.55057,17.74927 -5.17263,19.27614 -1.84512,4.52895 -10.74878,11.70994 -20.29414,16.36766 -7.39256,3.60726 -9.91972,4.3562 -14.69911,4.3562 -5.3537,0 -5.94513,-0.23537 -8.16669,-3.25 z"
       id="path3025"
       inkscape:connector-curvature="0"
       sodipodi:nodetypes="ssssssssssssssssss" />
  </g>
</svg>
