<?xml version="1.0" encoding="UTF-8" standalone="no"?>
<!-- Created with Inkscape (http://www.inkscape.org/) -->

<svg
   xmlns:dc="http://purl.org/dc/elements/1.1/"
   xmlns:cc="http://creativecommons.org/ns#"
   xmlns:rdf="http://www.w3.org/1999/02/22-rdf-syntax-ns#"
   xmlns:svg="http://www.w3.org/2000/svg"
   xmlns="http://www.w3.org/2000/svg"
   xmlns:sodipodi="http://sodipodi.sourceforge.net/DTD/sodipodi-0.dtd"
   xmlns:inkscape="http://www.inkscape.org/namespaces/inkscape"
   width="744.09448819"
   height="1052.3622047"
   id="svg2"
   version="1.1"
   inkscape:version="0.48.4 r9939"
   sodipodi:docname="coqlogo2.svg">
  <defs
     id="defs4" />
  <sodipodi:namedview
     id="base"
     pagecolor="#ffffff"
     bordercolor="#666666"
     borderopacity="1.0"
     inkscape:pageopacity="0.0"
     inkscape:pageshadow="2"
     inkscape:zoom="5.6"
     inkscape:cx="20.290985"
     inkscape:cy="1024.5723"
     inkscape:document-units="px"
     inkscape:current-layer="g3859"
     showgrid="false"
     inkscape:window-width="1280"
     inkscape:window-height="737"
     inkscape:window-x="-8"
     inkscape:window-y="-8"
     inkscape:window-maximized="1" />
  <metadata
     id="metadata7">
    <rdf:RDF>
      <cc:Work
         rdf:about="">
        <dc:format>image/svg+xml</dc:format>
        <dc:type
           rdf:resource="http://purl.org/dc/dcmitype/StillImage" />
        <dc:title></dc:title>
      </cc:Work>
    </rdf:RDF>
  </metadata>
  <g
     inkscape:label="Layer 1"
     inkscape:groupmode="layer"
     id="layer1">
    <g
       transform="matrix(1.4674083,0,0,-5.9783034,-0.2299662,305.21004)"
       id="g2995" />
    <g
       id="g3859">
      <path
         sodipodi:nodetypes="cccccccccccsccccccccsccccccccccscc"
         inkscape:connector-curvature="0"
         d="m 5.824917,50.172678 c 0.18,-1.1375 0.926607,-0.925179 2.094107,-2.803929 2.00125,-3.21875 2.07,-3.53625 1.1225,-5.23 -0.55625,-0.99125 -2.4075,-2.56375 -4.11125,-3.49625 -6.0887499,-3.325 -6.3374999,-4.22875 -1.8499996,-6.7475 1.50375,-0.845 3.3149996,-2.495 4.0324996,-3.6675 1.51875,-2.495 1.70875,-6.70875 0.3525,-7.83625 -0.5225,-0.43 -1.14375,-1.55375 -1.3775,-2.49125 -0.35125,-1.39125 -2.2212496,-0.54625 -3.4474996,-0.16125 -1.3625,0.435 -1.41125,0.37125 -0.5075,-0.7175 0.88375,-1.05875 2.35375,-2.3875 1.10375,-3.39875 C -3.0572259,8.5249988 1.3852744,0 10.335274,0 c 4.9125,0 8.0375,4.1749992 7.3975,9.8687488 -0.4775,4.2425002 -3.88125,7.9000002 -3.90625,4.1987502 -0.0088,-1.5875 -1.06375,-3.76 -1.5475,-3.20375 -0.39,0.45 0.65875,16.255 1.10375,16.705 0.75625,0.75125 1.655,-0.5225 2.5,-3.55 0.48375,-1.72375 1.895,-4.20875 3.135,-5.5225 2.1825,-2.315 2.3875,-2.3825 6.3325,-2.095 3.345,0.24 4.44875,0.645 6.11375,2.24125 1.80125,1.72375 2.03125,2.3975 2.03125,5.86375 0,2.32 -0.58125,5.46875 -1.42625,7.73 -1.16625,3.115 -1.9925,4.175 -4.52625,5.78125 -1.72875,1.09375 -4.56,2.15875 -6.39625,2.4025 -2.23125,0.2925 -3.61375,0.89375 -4.2825,1.85 -1.27,1.8175 -1.27,4.56125 0.005,6.24125 0.54625,0.7225 1.536964,0.317143 1.550714,1.714643 z M 22.514024,34.931249 c -0.3125,-3.17375 -2.29,-2.75375 -2.04625,0.435 0.1075,1.3675 -0.1225,2.685 -0.5075,2.92 -0.38625,0.23875 -0.69875,0.77625 -0.69875,1.19125 0,0.415 0.77625,0.025 1.72875,-0.86375 1.25,-1.1825 1.67,-2.1875 1.52375,-3.6825 z"
         style="fill:#000000;fill-opacity:1;fill-rule:nonzero;stroke:none"
         id="path2999" />
    </g>
  </g>
</svg>
