<?xml version="1.0" encoding="UTF-8" standalone="no"?>
<!-- Created with Inkscape (http://www.inkscape.org/) -->

<svg
   xmlns:dc="http://purl.org/dc/elements/1.1/"
   xmlns:cc="http://creativecommons.org/ns#"
   xmlns:rdf="http://www.w3.org/1999/02/22-rdf-syntax-ns#"
   xmlns:svg="http://www.w3.org/2000/svg"
   xmlns="http://www.w3.org/2000/svg"
   xmlns:sodipodi="http://sodipodi.sourceforge.net/DTD/sodipodi-0.dtd"
   xmlns:inkscape="http://www.inkscape.org/namespaces/inkscape"
   id="svg2"
   version="1.1"
   inkscape:version="0.48.4 r9939"
   width="66"
   height="100"
   sodipodi:docname="coq.svg">
  <metadata
     id="metadata8">
    <rdf:RDF>
      <cc:Work
         rdf:about="">
        <dc:format>image/svg+xml</dc:format>
        <dc:type
           rdf:resource="http://purl.org/dc/dcmitype/StillImage" />
        <dc:title></dc:title>
      </cc:Work>
    </rdf:RDF>
  </metadata>
  <defs
     id="defs6">
    <filter
       inkscape:collect="always"
       id="filter3812">
      <feGaussianBlur
         inkscape:collect="always"
         stdDeviation="1.0836093"
         id="feGaussianBlur3814" />
    </filter>
  </defs>
  <sodipodi:namedview
     pagecolor="#ffffff"
     bordercolor="#666666"
     borderopacity="1"
     objecttolerance="10"
     gridtolerance="10"
     guidetolerance="10"
     inkscape:pageopacity="0"
     inkscape:pageshadow="2"
     inkscape:window-width="1920"
     inkscape:window-height="1122"
     id="namedview4"
     showgrid="false"
     inkscape:zoom="9.44"
     inkscape:cx="20.288136"
     inkscape:cy="51.222806"
     inkscape:window-x="-4"
     inkscape:window-y="-6"
     inkscape:window-maximized="1"
     inkscape:current-layer="svg2" />
  <g
     id="g3788"
     style="fill:#000000;filter:url(#filter3812);opacity:0.5"
     transform="translate(2,2)">
    <path
       style="fill:#000000;fill-opacity:1;stroke:none"
       d="m 8.1646864,32.135726 5.5804506,-6.366957 1.310844,5.093566 z"
       id="path3790"
       inkscape:connector-curvature="0"
       sodipodi:nodetypes="cccc" />
    <path
       style="fill:#000000;fill-opacity:1;stroke:none"
       d="m 21.03125,17.0625 -6,2.84375 -1.6875,7.6875 c 0,0 0.581148,4.566322 1.4375,6.625 0.721486,1.734459 2.90625,4.5 2.90625,4.5 l 0,9.15625 c 0,0 -2.934219,3.834354 -4.75,5.40625 -2.536099,2.195465 -6.8756454,3.366879 -8.0625,5.40625 -0.8174413,1.404608 -0.1066817,3.16113 1.4375,4.65625 2.0304468,1.965937 6.444701,2.92751 8.6875,4.5625 2.014606,1.468638 3.706146,3.147397 4.53125,5.5 0.590273,1.683033 0.125,5.34375 0.125,5.34375 l -6.53125,7.15625 -0.03125,7.0625 21.125,0 0,-8.84375 c 0,0 -3.523203,-4.003816 -3.59375,-6.46875 -0.07297,-2.549469 1.025213,-5.269216 3.3125,-6.90625 3.058598,-2.18907 7.343636,-0.425448 10.78125,-2.15625 4.840195,-2.436985 9.576,-6.004745 11.84375,-11.03125 2.734334,-6.060697 4.138334,-16.008795 2.375,-21.1875 -0.554688,-1.629055 -2.68124,-4.466278 -5.875,-5.5625 -4.237688,-1.454538 -9.094923,-2.141814 -13.21875,-0.875 -2.902891,0.891749 -5.082517,3.314371 -6.9375,5.71875 -1.634286,2.118317 -1.900579,4.398105 -3.09375,7.40625 C 29.243145,44.49792 29.75535,46.854766 27.65625,49 25.663083,46.960912 26.361193,45.044582 26,42.46875 25.638807,39.892918 24.90625,31 24.90625,31 l 0,-8.96875 -3.875,-4.96875 z m 17.6875,40.03125 c 1.293218,-0.10703 2.375,2.292373 2.375,2.875 0,0.741525 -0.265326,3.336133 -1.15625,4.6875 -0.999007,1.515308 -4.34375,3.3125 -4.34375,3.3125 0,0 2.891187,-2.624188 3.1875,-4.1875 0.296313,-1.563312 -0.845174,-2.766956 -1.1875,-4.15625 -0.201286,-0.816896 0.06198,-2.44327 1.125,-2.53125 z"
       id="path3792"
       inkscape:connector-curvature="0" />
    <path
       style="fill:#000000;fill-opacity:1;stroke:none"
       d="m 11.930224,27.919562 c 0,0 4.901114,-4.78851 8.037996,-5.673799 1.670722,-0.47151 3.739805,-0.7585 5.190678,0.423733 2.268432,1.848414 1.473396,3.975095 2.277542,8.209745 2.287198,-1.909417 4.255412,-3.020903 5.402543,-5.190678 1.934395,-3.658868 2.037234,-8.414173 1.006356,-12.394067 C 33.092668,10.388668 31.59953,7.640559 29.131356,5.9322072 26.490469,4.1043117 22.962653,3.5201679 19.756356,3.707631 16.773309,3.8820413 13.799048,5.0896332 11.334746,6.7796649 8.7240685,8.5700819 6.6629557,10.908053 5.720339,13.930089 c -0.7883991,2.527613 -0.6830707,5.646836 0.2648305,7.891949 1.1945813,2.829377 5.9450545,6.097524 5.9450545,6.097524 z"
       id="path3794"
       inkscape:connector-curvature="0"
       sodipodi:nodetypes="csscsssssssc" />
  </g>
  <g
     id="g3783">
    <path
       sodipodi:nodetypes="cccc"
       inkscape:connector-curvature="0"
       id="path3781"
       d="m 8.1646864,32.135726 5.5804506,-6.366957 1.310844,5.093566 z"
       style="fill:#cdac77;stroke:none;stroke-width:1px;stroke-linecap:butt;stroke-linejoin:miter;stroke-opacity:1;fill-opacity:1" />
    <path
       id="path3006"
       d="M 21.03125 17.0625 L 15.03125 19.90625 L 13.34375 27.59375 C 13.34375 27.59375 13.924898 32.160072 14.78125 34.21875 C 15.502736 35.953209 17.6875 38.71875 17.6875 38.71875 L 17.6875 47.875 C 17.6875 47.875 14.753281 51.709354 12.9375 53.28125 C 10.401401 55.476715 6.0618546 56.648129 4.875 58.6875 C 4.0575587 60.092108 4.7683183 61.84863 6.3125 63.34375 C 8.3429468 65.309687 12.757201 66.27126 15 67.90625 C 17.014606 69.374888 18.706146 71.053647 19.53125 73.40625 C 20.121523 75.089283 19.65625 78.75 19.65625 78.75 L 13.125 85.90625 L 13.09375 92.96875 L 34.21875 92.96875 L 34.21875 84.125 C 34.21875 84.125 30.695547 80.121184 30.625 77.65625 C 30.55203 75.106781 31.650213 72.387034 33.9375 70.75 C 36.996098 68.56093 41.281136 70.324552 44.71875 68.59375 C 49.558945 66.156765 54.29475 62.589005 56.5625 57.5625 C 59.296834 51.501803 60.700834 41.553705 58.9375 36.375 C 58.382812 34.745945 56.25626 31.908722 53.0625 30.8125 C 48.824812 29.357962 43.967577 28.670686 39.84375 29.9375 C 36.940859 30.829249 34.761233 33.251871 32.90625 35.65625 C 31.271964 37.774567 31.005671 40.054355 29.8125 43.0625 C 29.243145 44.49792 29.75535 46.854766 27.65625 49 C 25.663083 46.960912 26.361193 45.044582 26 42.46875 C 25.638807 39.892918 24.90625 31 24.90625 31 L 24.90625 22.03125 L 21.03125 17.0625 z M 38.71875 57.09375 C 40.011968 56.98672 41.09375 59.386123 41.09375 59.96875 C 41.09375 60.710275 40.828424 63.304883 39.9375 64.65625 C 38.938493 66.171558 35.59375 67.96875 35.59375 67.96875 C 35.59375 67.96875 38.484937 65.344562 38.78125 63.78125 C 39.077563 62.217938 37.936076 61.014294 37.59375 59.625 C 37.392464 58.808104 37.655731 57.18173 38.71875 57.09375 z "
       style="opacity:1;fill:#c8a873;fill-opacity:1;stroke:none;stroke-width:1px;stroke-linecap:butt;stroke-linejoin:miter;stroke-opacity:1" />
    <path
       sodipodi:nodetypes="csscsssssssc"
       inkscape:connector-curvature="0"
       id="path3779"
       d="m 11.930224,27.919562 c 0,0 4.901114,-4.78851 8.037996,-5.673799 1.670722,-0.47151 3.739805,-0.7585 5.190678,0.423733 2.268432,1.848414 1.473396,3.975095 2.277542,8.209745 2.287198,-1.909417 4.255412,-3.020903 5.402543,-5.190678 1.934395,-3.658868 2.037234,-8.414173 1.006356,-12.394067 C 33.092668,10.388668 31.59953,7.640559 29.131356,5.9322072 26.490469,4.1043117 22.962653,3.5201679 19.756356,3.707631 16.773309,3.8820413 13.799048,5.0896332 11.334746,6.7796649 8.7240685,8.5700819 6.6629557,10.908053 5.720339,13.930089 c -0.7883991,2.527613 -0.6830707,5.646836 0.2648305,7.891949 1.1945813,2.829377 5.9450545,6.097524 5.9450545,6.097524 z"
       style="fill:#c9986a;fill-opacity:1;stroke:none" />
  </g>
</svg>
